<svg width="26" height="26" viewBox="0 0 26 26" fill="none" xmlns="http://www.w3.org/2000/svg">
<g clip-path="url(#clip0_467_26)">
<path d="M15.7129 18.331C15.7129 18.331 17.8184 17.1257 18.3696 16.836C18.9192 16.5454 19.4886 16.472 19.8344 16.6832C20.358 17.0035 24.7552 19.9285 25.1254 20.1874C25.4956 20.4469 25.674 21.1879 25.1649 21.9138C24.6579 22.6398 22.319 25.5102 21.3278 25.4795C20.3352 25.4472 16.2079 25.3568 8.42508 17.5718C0.643796 9.78952 0.551756 5.66124 0.520036 4.66856C0.488316 3.6764 3.35872 1.33692 4.08464 0.829403C4.8116 0.322403 5.55364 0.513243 5.81156 0.869963C6.10484 1.27608 8.99604 5.65916 9.31428 6.16148C9.53216 6.50468 9.45208 7.0772 9.1614 7.62736C8.87228 8.17856 7.66692 10.284 7.66692 10.284C7.66692 10.284 8.5166 11.7333 11.3901 14.6063C14.2642 17.4798 15.7129 18.331 15.7129 18.331Z" stroke="#F0F0F0" stroke-width="2" stroke-miterlimit="10"/>
</g>
<defs>
<clipPath id="clip0_467_26">
<rect width="26" height="26" fill="white"/>
</clipPath>
</defs>
</svg>
