<svg width="50" height="50" viewBox="0 0 50 50" fill="none" xmlns="http://www.w3.org/2000/svg">
<g clip-path="url(#clip0_158_554)">
<path d="M41.6666 36.4583C42.4691 36.4587 43.2407 36.7679 43.8216 37.3217C44.4024 37.8755 44.7479 38.6315 44.7864 39.4331C44.825 40.2348 44.5537 41.0205 44.0287 41.6275C43.5038 42.2345 42.7654 42.6163 41.9666 42.6937L41.6666 42.7083H8.33325C7.53072 42.7079 6.7591 42.3988 6.17828 41.845C5.59746 41.2911 5.25198 40.5351 5.21341 39.7335C5.17484 38.9319 5.44615 38.1462 5.97112 37.5392C6.49608 36.9321 7.23446 36.5503 8.03325 36.4729L8.33325 36.4583H41.6666ZM41.6666 21.875C42.4954 21.875 43.2902 22.2042 43.8763 22.7903C44.4623 23.3763 44.7916 24.1712 44.7916 25C44.7916 25.8288 44.4623 26.6236 43.8763 27.2097C43.2902 27.7957 42.4954 28.125 41.6666 28.125H8.33325C7.50445 28.125 6.70959 27.7957 6.12354 27.2097C5.53749 26.6236 5.20825 25.8288 5.20825 25C5.20825 24.1712 5.53749 23.3763 6.12354 22.7903C6.70959 22.2042 7.50445 21.875 8.33325 21.875H41.6666ZM41.6666 7.29166C42.4954 7.29166 43.2902 7.6209 43.8763 8.20695C44.4623 8.793 44.7916 9.58785 44.7916 10.4167C44.7916 11.2455 44.4623 12.0403 43.8763 12.6264C43.2902 13.2124 42.4954 13.5417 41.6666 13.5417H8.33325C7.50445 13.5417 6.70959 13.2124 6.12354 12.6264C5.53749 12.0403 5.20825 11.2455 5.20825 10.4167C5.20825 9.58785 5.53749 8.793 6.12354 8.20695C6.70959 7.6209 7.50445 7.29166 8.33325 7.29166H41.6666Z" fill="#F4F4F4"/>
</g>
<defs>
<clipPath id="clip0_158_554">
<rect width="50" height="50" fill="white"/>
</clipPath>
</defs>
</svg>
